<?xml version="1.0" encoding="UTF-8" standalone="no"?>
<!-- Created with Inkscape (http://www.inkscape.org/) -->

<svg
   width="32"
   height="32"
   viewBox="0 0 32 32"
   version="1.1"
   id="svg1"
   xml:space="preserve"
   inkscape:version="1.4.2 (ebf0e940d0, 2025-05-08)"
   sodipodi:docname="icon_src.svg"
   inkscape:export-filename="icon.svg"
   inkscape:export-xdpi="96"
   inkscape:export-ydpi="96"
   inkscape:export-batch-path="addon/assets/assets"
   inkscape:export-batch-name=""
   xmlns:inkscape="http://www.inkscape.org/namespaces/inkscape"
   xmlns:sodipodi="http://sodipodi.sourceforge.net/DTD/sodipodi-0.dtd"
   xmlns="http://www.w3.org/2000/svg"
   xmlns:svg="http://www.w3.org/2000/svg"><sodipodi:namedview
     id="namedview1"
     pagecolor="#ffffff"
     bordercolor="#000000"
     borderopacity="0.25"
     inkscape:showpageshadow="2"
     inkscape:pageopacity="0.0"
     inkscape:pagecheckerboard="0"
     inkscape:deskcolor="#d1d1d1"
     inkscape:document-units="mm"
     inkscape:zoom="22.627417"
     inkscape:cx="14.252621"
     inkscape:cy="20.417708"
     inkscape:window-width="2560"
     inkscape:window-height="1368"
     inkscape:window-x="0"
     inkscape:window-y="0"
     inkscape:window-maximized="1"
     inkscape:current-layer="svg1" /><defs
     id="defs1" /><g
     id="g1"
     inkscape:label="icon"><circle
       style="fill:#ececec;fill-opacity:1;stroke-width:0.359957;paint-order:markers stroke fill"
       id="path6361"
       cx="114.466"
       cy="114.466"
       r="114.466"
       transform="scale(0.1397795)" /><circle
       style="display:inline;fill:#ffffff;stroke-width:0.748327;paint-order:markers stroke fill"
       id="path6353"
       cx="114.466"
       cy="114.466"
       r="100.21242"
       inkscape:label="white-circle"
       transform="scale(0.1397795)" /><path
       style="display:inline;opacity:1;fill:#ed2b23;fill-opacity:1;stroke-width:0.529167;paint-order:markers stroke fill"
       d="m 153.07369,73.166739 -36.62772,42.214991 c -24.79884,-8.39413 -33.806162,2.84441 -37.337205,10.02162 21.423405,10.65114 43.181275,26.31917 65.273595,47.00409 14.76925,-11.54467 11.31046,-26.2667 -10.37637,-44.1661 l 11.97274,9.04607 32.05075,-48.676659 c -4.90198,-7.510228 -10.72372,-8.352214 -16.0871,-12.517342 8.66408,-0.466602 20.31206,12.473599 31.26216,24.122851 17.93727,3.99429 14.79071,-16.078478 -7.67143,-33.080235 -7.8712,-5.684314 -14.33882,-9.923912 -19.95179,-12.116831 -29.8786,-11.673201 -26.5129,10.093737 -12.50763,18.147545 z"
       id="path6355"
       sodipodi:nodetypes="ccccccccccsc"
       inkscape:label="main-red"
       transform="matrix(0.1397795,0,0,0.1397795,-2.9354612,-2.9354612)" /><path
       style="display:inline;opacity:1;fill:#c11518;fill-opacity:1;stroke-width:0.529167;paint-order:markers stroke fill"
       d="m 12.43377,94.447105 c -0.06258,8.610665 60.304198,53.872695 72.191183,56.582285 14.429559,-12.49183 8.586553,-26.28826 2.660608,-37.69196 L 114.87378,63.424031 c 4.12396,2.276452 7.20634,4.861361 11.65576,5.835984 C 106.3907,43.631166 99.285793,44.623016 90.212231,43.363424 99.120158,48.29796 106.49937,53.093523 110.22491,57.556933 100.10062,73.869252 89.693417,89.615746 78.860299,104.51041 64.355399,92.844468 62.172645,93.647364 56.985601,91.410205 89.246343,112.2403 91.067856,127.86306 77.770075,141.29441 65.759277,129.83998 46.660738,110.64436 12.43377,94.447105 Z"
       id="path6359"
       sodipodi:nodetypes="ccccccccccc"
       inkscape:label="dark-red"
       transform="matrix(0.1397795,0,0,0.1397795,6.3843363,1.3915873)" /><path
       style="display:inline;opacity:1;fill:#ffffff;fill-opacity:1;stroke-width:0.529167;paint-order:markers stroke fill"
       d="m 174.6432,66.82878 c -0.34945,-0.160443 -1.09163,-0.671013 -1.25825,-0.770614 -10.11446,-6.046291 -17.04967,-9.560182 -23.9784,-11.743784 l -0.59811,-0.05085 -0.19401,-0.04055 c -0.45134,-0.129963 -0.84134,-0.380594 -0.28808,-0.768265 l 0.55264,-0.07447 c 8.37537,-0.460633 18.96754,4.429504 27.22246,9.932558 0.20799,0.138655 0.73379,0.643841 0.86332,0.854131 0.34271,0.55639 -1.43059,3.07091 -2.32157,2.661844 z"
       id="path6356"
       sodipodi:nodetypes="sscccccsss"
       inkscape:label="highlight1"
       transform="matrix(0.1397795,0,0,0.1397795,-2.9354612,-2.9354612)" /><path
       style="display:inline;opacity:1;fill:#f9f9f9;fill-opacity:1;stroke-width:0.529167;paint-order:markers stroke fill"
       d="m 87.356421,47.746585 c 0.467564,-0.486776 0.643828,-0.895127 1.649542,-0.486776 l 5.204405,2.662455 c 0.552618,0.307662 0.666254,0.594419 0.340916,0.860272 L 62.397416,91.255765 c -1.11546,1.131772 -1.004894,0.97274 -2.199188,0.432214 L 55.280655,88.560514 C 54.098163,87.703207 54.070448,87.629301 54.898193,86.553972 65.534686,73.800471 76.719929,61.126212 87.356421,47.746585 Z"
       id="path6357"
       sodipodi:nodetypes="ccccccccc"
       inkscape:label="highlight2"
       transform="matrix(0.1397795,0,0,0.1397795,6.3843363,1.3915873)" /><path
       style="display:inline;opacity:1;fill:#f9f9f9;fill-opacity:1;stroke-width:0.529167;paint-order:markers stroke fill"
       d="M 56.688561,96.619942 C 40.606374,84.129009 27.549792,83.390276 17.843673,94.04802 c 9.360696,-0.635426 14.948473,4.67875 21.417902,8.60263 4.774314,-4.892562 10.760683,-6.814111 17.426986,-6.030708 z"
       id="path6358"
       sodipodi:nodetypes="cccc"
       inkscape:label="highlight3"
       transform="matrix(0.1397795,0,0,0.1397795,6.3843363,1.3915873)" /><path
       style="display:inline;opacity:1;fill:#4b646f;fill-opacity:1;stroke-width:0.529167;paint-order:markers stroke fill"
       d="m 44.647753,119.16075 c 3.11535,1.27476 5.607074,3.20434 7.475167,5.78873 l -27.432523,34.57158 c -5.647377,4.80953 -7.982403,6.77443 -11.064351,9.01853 1.362865,-3.90512 0.880717,-4.4018 4.739114,-12.68797 z"
       id="path6360"
       sodipodi:nodetypes="cccccc"
       inkscape:label="pin-dark"
       transform="matrix(0.1397795,0,0,0.1397795,6.3843363,1.3915873)" /><path
       style="display:inline;fill:#ffffff;fill-opacity:1;stroke-width:0.42433;paint-order:markers stroke fill"
       d="m 111.98174,150.40062 c 0.54285,0.25578 2.21738,0.78792 3.36304,1.97973 l -26.883174,36.21568 c -2.396015,2.89161 -3.546154,4.01071 -6.064104,7.36374 0.857287,-3.04392 1.131782,-3.80029 3.354372,-8.81597 z"
       id="path6360-2"
       sodipodi:nodetypes="cccccc"
       inkscape:label="pin-highlight"
       transform="matrix(0.1397795,0,0,0.1397795,-2.9354612,-2.9354612)" /><circle
       style="display:inline;fill:#1081ff;fill-opacity:1;stroke-width:0.47218;paint-order:markers stroke fill"
       id="path6354"
       cx="162.31178"
       cy="151.40678"
       r="14.548985"
       inkscape:label="dot"
       transform="scale(0.1397795)" /></g></svg>
